<mxfile host="app.diagrams.net" agent="Mozilla/5.0 (Windows NT 10.0; Win64; x64) AppleWebKit/537.36 (KHTML, like Gecko) Chrome/135.0.0.0 Safari/537.36" version="26.3.0">
  <diagram name="Page-1" id="lI6y6ywSlFywr66B6yDI">
    <mxGraphModel dx="1251" dy="660" grid="1" gridSize="10" guides="1" tooltips="1" connect="1" arrows="1" fold="1" page="1" pageScale="1" pageWidth="850" pageHeight="1100" math="0" shadow="0">
      <root>
        <mxCell id="0" />
        <mxCell id="1" parent="0" />
        <mxCell id="0Tx2e12hfTJ4ee2PvemT-1" value="&lt;b&gt;MongoDB&lt;/b&gt;" style="shape=cylinder3;whiteSpace=wrap;html=1;boundedLbl=1;backgroundOutline=1;size=15;" vertex="1" parent="1">
          <mxGeometry x="600" y="160" width="130" height="130" as="geometry" />
        </mxCell>
        <mxCell id="0Tx2e12hfTJ4ee2PvemT-2" value="" style="rounded=1;whiteSpace=wrap;html=1;" vertex="1" parent="1">
          <mxGeometry x="200" y="177.5" width="150" height="102.5" as="geometry" />
        </mxCell>
        <mxCell id="0Tx2e12hfTJ4ee2PvemT-3" value="&lt;b&gt;Catalogue&lt;/b&gt;" style="text;html=1;align=center;verticalAlign=middle;resizable=0;points=[];autosize=1;strokeColor=none;fillColor=none;" vertex="1" parent="1">
          <mxGeometry x="235" y="140" width="80" height="30" as="geometry" />
        </mxCell>
        <mxCell id="0Tx2e12hfTJ4ee2PvemT-4" value="&lt;b&gt;Client&lt;/b&gt;" style="ellipse;whiteSpace=wrap;html=1;" vertex="1" parent="1">
          <mxGeometry x="270" y="220" width="60" height="40" as="geometry" />
        </mxCell>
        <mxCell id="0Tx2e12hfTJ4ee2PvemT-5" style="edgeStyle=orthogonalEdgeStyle;rounded=0;orthogonalLoop=1;jettySize=auto;html=1;entryX=0.027;entryY=0.614;entryDx=0;entryDy=0;entryPerimeter=0;" edge="1" parent="1" source="0Tx2e12hfTJ4ee2PvemT-4" target="0Tx2e12hfTJ4ee2PvemT-1">
          <mxGeometry relative="1" as="geometry" />
        </mxCell>
        <mxCell id="0Tx2e12hfTJ4ee2PvemT-6" value="&lt;b&gt;load some products&lt;/b&gt;" style="text;html=1;align=center;verticalAlign=middle;resizable=0;points=[];autosize=1;strokeColor=none;fillColor=none;" vertex="1" parent="1">
          <mxGeometry x="390" y="248" width="140" height="30" as="geometry" />
        </mxCell>
      </root>
    </mxGraphModel>
  </diagram>
</mxfile>
